<svg width="40" height="40" viewBox="0 0 40 40" fill="none" xmlns="http://www.w3.org/2000/svg">
<g clip-path="url(#clip0_121_76)">
<path d="M39.5 20C39.5 30.7696 30.7696 39.5 20 39.5C9.23045 39.5 0.5 30.7696 0.5 20C0.5 9.23045 9.23045 0.5 20 0.5C30.7696 0.5 39.5 9.23045 39.5 20Z" fill="#F0F0F0" stroke="#E9E9E9"/>
<path d="M26.9569 19.9999C26.9569 21.7391 23.8424 26.0869 20.0004 26.0869C16.1585 26.0869 13.0439 21.7391 13.0439 19.9999C13.0439 16.1579 16.1585 13.0435 20.0004 13.0435C23.8424 13.0435 26.9569 16.1579 26.9569 19.9999Z" fill="#D80027"/>
<path d="M26.9569 20C26.9569 23.842 23.8424 26.9565 20.0004 26.9565C16.1585 26.9565 13.0439 23.842 13.0439 20" fill="#0052B4"/>
<path d="M27.373 26.1492L29.2174 24.3048L30.4469 25.5344L28.6026 27.3787L27.373 26.1492Z" fill="black"/>
<path d="M24.2979 29.2231L26.1422 27.3788L27.3718 28.6084L25.5274 30.4527L24.2979 29.2231Z" fill="black"/>
<path d="M31.0615 29.8376L32.9059 27.9933L34.1354 29.2229L32.2911 31.0672L31.0615 29.8376Z" fill="black"/>
<path d="M27.9873 32.9121L29.8316 31.0678L31.0612 32.2974L29.2169 34.1417L27.9873 32.9121Z" fill="black"/>
<path d="M29.2178 27.9934L31.0621 26.1491L32.2917 27.3786L30.4473 29.223L29.2178 27.9934Z" fill="black"/>
<path d="M26.1436 31.0674L27.9879 29.2231L29.2175 30.4526L27.3731 32.297L26.1436 31.0674Z" fill="black"/>
<path d="M31.0703 13.8542L26.1521 8.93601L27.3816 7.70644L32.2999 12.6247L31.0703 13.8542Z" fill="black"/>
<path d="M26.1514 12.6252L24.307 10.7809L25.5366 9.5514L27.3809 11.3957L26.1514 12.6252Z" fill="black"/>
<path d="M29.2246 15.7L27.3803 13.8556L28.6098 12.6261L30.4541 14.4704L29.2246 15.7Z" fill="black"/>
<path d="M29.8389 8.93604L27.9945 7.0917L29.2241 5.86213L31.0684 7.70646L29.8389 8.93604Z" fill="black"/>
<path d="M32.915 12.011L31.0707 10.1667L32.3003 8.93708L34.1446 10.7814L32.915 12.011Z" fill="black"/>
<path d="M7.08984 27.99L12.0081 32.9082L10.7785 34.1378L5.86027 29.2196L7.08984 27.99Z" fill="black"/>
<path d="M12.0078 29.2185L13.8521 31.0628L12.6226 32.2924L10.7783 30.448L12.0078 29.2185Z" fill="black"/>
<path d="M8.93359 26.1453L10.7779 27.9896L9.54835 29.2192L7.70402 27.3748L8.93359 26.1453Z" fill="black"/>
<path d="M10.7783 24.3005L15.6966 29.2188L14.467 30.4483L9.54875 25.5301L10.7783 24.3005Z" fill="black"/>
<path d="M12.0078 7.08789L7.08958 12.0061L5.86001 10.7766L10.7782 5.85832L12.0078 7.08789Z" fill="black"/>
<path d="M13.8525 8.93188L8.9343 13.8501L7.70473 12.6205L12.623 7.70231L13.8525 8.93188Z" fill="black"/>
<path d="M15.6982 10.7773L10.78 15.6956L9.55049 14.4661L14.4687 9.54783L15.6982 10.7773Z" fill="black"/>
</g>
<defs>
<clipPath id="clip0_121_76">
<rect width="40" height="40" fill="white"/>
</clipPath>
</defs>
</svg>
