<svg width="27" height="27" viewBox="0 0 27 27" fill="none" xmlns="http://www.w3.org/2000/svg">
<path d="M0 13.5C0 6.04418 6.04418 0 13.5 0C20.9558 0 27 6.04418 27 13.5C27 20.9558 20.9558 27 13.5 27C6.04418 27 0 20.9558 0 13.5Z" fill="#FFE812"/>
<path d="M13.6658 8.1001C10.0637 8.1001 7.14355 10.4025 7.14355 13.2427C7.14355 15.0788 8.36436 16.69 10.2007 17.5998C10.1008 17.9444 9.55875 19.8164 9.53714 19.9635C9.53714 19.9635 9.52418 20.0739 9.59572 20.1161C9.6673 20.1582 9.75144 20.1255 9.75144 20.1255C9.95665 20.0969 12.131 18.5695 12.5074 18.3043C12.8833 18.3575 13.2705 18.3852 13.6658 18.3852C17.268 18.3852 20.1881 16.0829 20.1881 13.2427C20.1881 10.4025 17.268 8.1001 13.6658 8.1001Z" fill="#381F1F"/>
<path fill-rule="evenodd" clip-rule="evenodd" d="M14.2934 14.9829C14.0945 14.9829 13.9328 14.8281 13.9328 14.6379V12.0823C13.9328 11.8748 14.1051 11.7061 14.3169 11.7061C14.5287 11.7061 14.701 11.8748 14.701 12.0823V14.293H15.5006C15.6995 14.293 15.8612 14.4478 15.8612 14.6379C15.8612 14.8281 15.6995 14.9829 15.5006 14.9829H14.2934ZM10.0602 15.0378C9.85267 15.0378 9.68391 14.8766 9.68391 14.6784V12.443H9.09678C8.89316 12.443 8.72754 12.2776 8.72754 12.0745C8.72754 11.8714 8.8932 11.7061 9.09678 11.7061H11.0236C11.2272 11.7061 11.3929 11.8714 11.3929 12.0745C11.3929 12.2776 11.2272 12.443 11.0236 12.443H10.4365V14.6784C10.4365 14.8766 10.2677 15.0378 10.0602 15.0378ZM13.3596 15.0329C13.2027 15.0329 13.0827 14.9692 13.0465 14.8667L12.8602 14.3789L11.7128 14.3788L11.5264 14.8669C11.4903 14.9692 11.3703 15.0329 11.2134 15.0329C11.1309 15.033 11.0492 15.0152 10.9742 14.981C10.8705 14.9331 10.7707 14.8015 10.885 14.4466L11.7851 12.0775C11.8485 11.8974 12.0411 11.7117 12.2862 11.7061C12.532 11.7117 12.7245 11.8974 12.7881 12.0779L13.6878 14.4459C13.8023 14.8016 13.7026 14.9333 13.5988 14.981C13.5238 15.0152 13.4422 15.0329 13.3596 15.0329ZM12.2865 12.6447L12.6624 13.7124H11.9107L12.2865 12.6447ZM16.0075 14.6566C16.0075 14.8641 16.1763 15.0329 16.3838 15.0329C16.4836 15.0327 16.5793 14.993 16.6499 14.9224C16.7204 14.8519 16.7601 14.7562 16.7603 14.6564V13.8354L16.8908 13.7048L17.7733 14.874C17.8082 14.9207 17.8536 14.9585 17.9058 14.9845C17.958 15.0105 18.0155 15.0239 18.0738 15.0236C18.1556 15.0238 18.2351 14.9971 18.3002 14.9477C18.3397 14.918 18.373 14.8808 18.3981 14.8382C18.4231 14.7956 18.4395 14.7485 18.4462 14.6995C18.4532 14.6506 18.4505 14.6008 18.438 14.5529C18.4256 14.505 18.4039 14.4601 18.3739 14.4207L17.4477 13.1937L18.3052 12.3363C18.3642 12.2773 18.3937 12.196 18.3882 12.1072C18.3828 12.0192 18.3435 11.9345 18.2776 11.8687C18.2069 11.7981 18.1126 11.7575 18.0187 11.7575C17.9381 11.7575 17.8639 11.7873 17.81 11.8413L16.7601 12.8911V12.0823C16.7601 11.8748 16.5914 11.7061 16.3838 11.7061C16.1763 11.7061 16.0075 11.8748 16.0075 12.0823V14.6566Z" fill="#FFE812"/>
</svg>
