<svg width="19" height="24" viewBox="0 0 19 24" fill="none" xmlns="http://www.w3.org/2000/svg">
<path d="M15.6482 12.2462C15.622 9.33696 18.0303 7.92162 18.1404 7.85573C16.7765 5.86722 14.6625 5.59552 13.9197 5.57386C12.1442 5.38701 10.4219 6.63626 9.5175 6.63626C8.595 6.63626 7.20223 5.59191 5.70115 5.6226C3.7695 5.65239 1.96242 6.77076 0.971325 8.50743C-1.07405 12.0485 0.451405 17.2522 2.41103 20.1145C3.3913 21.5162 4.53674 23.0814 6.03603 23.0264C7.50281 22.9659 8.05071 22.0912 9.82079 22.0912C11.5746 22.0912 12.0891 23.0264 13.6182 22.9912C15.1924 22.9659 16.1835 21.583 17.1294 20.1686C18.2623 18.5619 18.7172 16.9796 18.7352 16.8984C18.6982 16.8857 15.678 15.733 15.6482 12.2462Z" fill="white"/>
<path d="M12.7601 3.69089C13.549 2.7043 14.0887 1.36208 13.9389 0C12.7971 0.0505477 11.3691 0.789808 10.5468 1.75473C9.81927 2.60501 9.16937 3.99869 9.33726 5.30932C10.6199 5.405 11.9369 4.66212 12.7601 3.69089Z" fill="white"/>
</svg>
