<svg width="70" height="71" viewBox="0 0 70 71" fill="none" xmlns="http://www.w3.org/2000/svg">
<path d="M70 35.5976C70 54.9409 54.3215 70.5977 35 70.5977C15.6784 70.5977 0 54.9192 0 35.5976C0 16.2761 15.6784 0.597656 35 0.597656C54.3432 0.597656 70 16.2761 70 35.5976Z" fill="#2AA8E0"/>
<path fill-rule="evenodd" clip-rule="evenodd" d="M41.7956 40.8439C39.5477 40.6687 37.284 40.8598 35.0046 40.6687C33.9199 40.5413 33.0239 39.57 32.8353 38.503C32.6938 37.4043 32.7567 36.2896 32.7095 35.1589C35.7277 35.1112 38.746 35.3022 41.7485 35.0634C43.2105 34.8245 44.3266 33.1047 43.9021 31.6396C43.7607 30.4772 42.7388 29.5854 41.6384 29.3943C38.6988 29.251 35.7435 29.3784 32.8038 29.3625C32.7881 28.1841 32.7881 26.9897 32.678 25.8113C32.458 24.3144 30.7602 23.2794 29.3454 23.6934C27.7891 23.9323 26.7988 25.6521 27.0346 27.1649C27.0346 30.8275 26.956 34.506 27.066 38.1527C27.0503 41.7357 29.5969 45.1116 32.961 46.1467C35.1932 46.8474 37.5512 46.5289 39.8463 46.5607C41.0882 46.5607 42.6759 46.6085 43.3833 45.3186C44.7195 43.8536 43.7449 41.1465 41.7956 40.8439Z" fill="white"/>
</svg>
