<svg width="70" height="71" viewBox="0 0 70 71" fill="none" xmlns="http://www.w3.org/2000/svg">
<circle cx="35.0002" cy="35.5978" r="33.3908" fill="white"/>
<path d="M35.0001 0.597656C15.6632 0.597656 0 16.2608 0 35.5977C0 54.9346 15.6632 70.5977 35.0001 70.5977C54.3369 70.5977 70 54.9346 70 35.5977C70 16.2856 54.3121 0.597656 35.0001 0.597656ZM52.7234 35.8211C52.7234 37.7324 52.4007 42.697 52.1773 43.6154C51.5071 46.3211 50.2412 47.3636 47.8831 47.736C46.5426 47.9346 40.0887 48.1828 34.9504 48.1828H34.9752C29.8369 48.1828 23.383 47.9346 22.0426 47.736C19.7092 47.3636 18.4433 46.3211 17.7731 43.6154C17.5497 42.697 17.2269 37.7324 17.2269 35.8211V35.3991C17.2269 33.5126 17.5497 28.5232 17.7731 27.6048C18.4433 24.8991 19.7092 23.8565 22.0426 23.4842C23.383 23.2856 29.8369 23.0374 34.9752 23.0374C40.1135 23.0374 46.5673 23.2856 47.9077 23.4842C50.2411 23.8565 51.5071 24.8991 52.2022 27.6048C52.4256 28.4984 52.7482 33.4877 52.7482 35.3991V35.8211H52.7234Z" fill="#D2262B"/>
<path d="M30.7305 40.1656L39.2446 35.4989L30.7305 31.0557V40.1656Z" fill="#D2262B"/>
</svg>
