<svg width="41" height="41" viewBox="0 0 41 41" fill="none" xmlns="http://www.w3.org/2000/svg">
<g clip-path="url(#clip0_121_51832)">
<circle cx="20.4609" cy="20.4609" r="19.5" fill="white" stroke="#014DA2"/>
<path d="M20.4616 25.1148C18.8107 25.1148 17.4112 24.5572 16.2632 23.442C15.1261 22.3268 14.5576 20.9164 14.5576 19.2108C14.5576 17.5052 15.1261 16.1003 16.2632 14.996C17.4112 13.8808 18.8107 13.3232 20.4616 13.3232C22.1235 13.3232 23.5175 13.8808 24.6436 14.996C25.7807 16.1003 26.3492 17.5052 26.3492 19.2108C26.3492 20.1729 26.1524 21.0585 25.7588 21.8676C25.3761 22.6657 24.8459 23.3327 24.168 23.8684L26.5132 26.886H23.1184L21.7244 24.9836C21.2871 25.0711 20.8661 25.1148 20.4616 25.1148ZM18.2312 16.8C17.6845 17.4013 17.4112 18.2049 17.4112 19.2108C17.4112 20.2167 17.6845 21.0203 18.2312 21.6216C18.7888 22.2229 19.5268 22.5236 20.4452 22.5236C21.3745 22.5236 22.1125 22.2229 22.6592 21.6216C23.2168 21.0203 23.4956 20.2167 23.4956 19.2108C23.4956 18.2049 23.2168 17.4013 22.6592 16.8C22.1125 16.1987 21.3745 15.898 20.4452 15.898C19.5268 15.898 18.7888 16.1987 18.2312 16.8Z" fill="#014DA2"/>
</g>
<defs>
<clipPath id="clip0_121_51832">
<rect width="41" height="41" fill="white"/>
</clipPath>
</defs>
</svg>
