<svg width="70" height="71" viewBox="0 0 70 71" fill="none" xmlns="http://www.w3.org/2000/svg">
<circle cx="35" cy="35.5977" r="35" fill="url(#paint0_linear_53_520)"/>
<path fill-rule="evenodd" clip-rule="evenodd" d="M44.8382 13.9688H26.1333C19.0703 13.9688 13.3711 19.6912 13.3711 26.7285V45.4299C13.3711 52.4916 19.0946 58.1897 26.1333 58.1897H44.8382C51.9012 58.1897 57.6003 52.4673 57.6003 45.4299V26.7285C57.6247 19.6912 51.9012 13.9688 44.8382 13.9688ZM53.533 45.7708C53.533 50.4462 49.7336 54.2449 45.0573 54.2449H25.914C21.2378 54.2449 17.4385 50.4462 17.4385 45.7708V26.6311C17.4385 21.9558 21.2378 18.1571 25.914 18.1571H45.0573C49.7336 18.1571 53.533 21.9558 53.533 26.6311V45.7708ZM35.4855 24.7326C29.1532 24.7326 24.0141 29.8706 24.0141 36.2018C24.0141 42.533 29.1532 47.671 35.4855 47.671C41.8179 47.671 46.9813 42.533 46.9813 36.2018C46.9813 29.8706 41.8423 24.7326 35.4855 24.7326ZM35.4855 43.6531C31.3695 43.6531 28.0571 40.3171 28.0571 36.2261C28.0571 32.1109 31.3939 28.7748 35.4855 28.7748C39.6016 28.7748 42.9383 32.1109 42.9383 36.2261C42.9383 40.3171 39.6016 43.6531 35.4855 43.6531ZM44.6677 24.2934C44.6677 22.808 45.8611 21.6148 47.3468 21.6148C48.8325 21.6148 50.0259 22.808 50.0259 24.2934C50.0259 25.7787 48.8325 26.9719 47.3468 26.9719C45.8611 26.9719 44.6677 25.7787 44.6677 24.2934Z" fill="white"/>
<defs>
<linearGradient id="paint0_linear_53_520" x1="35.3933" y1="6.10327" x2="10.2247" y2="82.7887" gradientUnits="userSpaceOnUse">
<stop stop-color="#1D2CA5"/>
<stop stop-color="#1D2CA5"/>
<stop offset="0.383611" stop-color="#F20D62"/>
<stop offset="0.552955" stop-color="#FF6500"/>
<stop offset="0.848528" stop-color="#FFF0B8"/>
</linearGradient>
</defs>
</svg>
