<svg xmlns="http://www.w3.org/2000/svg" viewBox="0 0 1400 1400" width="1400" height="1400" preserveAspectRatio="xMidYMid meet" style="width: 100%; height: 100%; transform: translate3d(0px, 0px, 0px);"><defs><clipPath id="__lottie_element_2"><rect width="1400" height="1400" x="0" y="0"></rect></clipPath><clipPath id="__lottie_element_4"><path d="M0,0 L1200,0 L1200,1200 L0,1200z"></path></clipPath><clipPath id="__lottie_element_11"><path d="M0,0 L1200,0 L1200,1200 L0,1200z"></path></clipPath><clipPath id="__lottie_element_30"><path d="M0,0 L1200,0 L1200,1200 L0,1200z"></path></clipPath><mask id="__lottie_element_39" mask-type="alpha"><g transform="matrix(1,0,0,1,395.5460205078125,282.4519958496094)" opacity="1" style="display: block;"><g opacity="1" transform="matrix(1,0,0,1,315.25,210.25)"><path fill="rgb(31,151,158)" fill-opacity="1" d=" M-303,210 C-303,210 303,210 303,210 C309.62701416015625,210 315,204.6280059814453 315,198 C315,198 315,-198 315,-198 C315,-204.6269989013672 309.62701416015625,-210 303,-210 C303,-210 -303,-210 -303,-210 C-309.62701416015625,-210 -315,-204.6269989013672 -315,-198 C-315,-198 -315,198 -315,198 C-315,204.6280059814453 -309.62701416015625,210 -303,210z"></path></g><g opacity="1" transform="matrix(1,0,0,1,316.7229919433594,31.8700008392334)"><path fill="rgb(246,219,206)" fill-opacity="1" d=" M303.5950012207031,19.145999908447266 C303.5950012207031,19.145999908447266 -303.5950012207031,19.145999908447266 -303.5950012207031,19.145999908447266 C-303.5950012207031,19.145999908447266 -303.5950012207031,-19.145999908447266 -303.5950012207031,-19.145999908447266 C-303.5950012207031,-19.145999908447266 303.5950012207031,-19.145999908447266 303.5950012207031,-19.145999908447266 C303.5950012207031,-19.145999908447266 303.5950012207031,19.145999908447266 303.5950012207031,19.145999908447266z"></path></g></g></mask><clipPath id="__lottie_element_49"><path d="M0,0 L1400,0 L1400,1200 L0,1200z"></path></clipPath></defs><g clip-path="url(#__lottie_element_2)"><g clip-path="url(#__lottie_element_49)" transform="matrix(1,0,0,1,0,100)" opacity="1" style="display: block;"><g transform="matrix(1,0,0,1,116.12799072265625,166.23800659179688)" opacity="1" style="display: block;"><g opacity="1" transform="matrix(0.9748207926750183,0.026782015338540077,-0.026782015338540077,0.9748207926750183,582.6264038085938,451.3557434082031)"><path fill="rgb(196,224,225)" fill-opacity="1" d=" M44.7607536315918,-460.3545837402344 C-162.35723876953125,-460.3545837402344 -229.56820678710938,-359.6066589355469 -242.4512176513672,-278.9146728515625 C-372.9642028808594,-239.1316680908203 -518.5595092773438,-158.6022186279297 -518.5595092773438,41.882774353027344 C-518.5595092773438,406.7837829589844 -24.249601364135742,454.8515319824219 -24.249601364135742,454.8515319824219 C435.25640869140625,454.8515319824219 508.9298095703125,134.96873474121094 516.3078002929688,13.812735557556152 C523.685791015625,-107.3442611694336 433.3137512207031,-460.3545837402344 44.7607536315918,-460.3545837402344z"></path></g><g opacity="1" transform="matrix(0.9748207926750183,0.026782015338540077,-0.026782015338540077,0.9748207926750183,582.6264038085938,451.3557434082031)"><path stroke-linecap="butt" stroke-linejoin="miter" fill-opacity="0" stroke-miterlimit="4" stroke="rgb(255,255,255)" stroke-opacity="1" stroke-width="25" d=" M44.7607536315918,-460.3545837402344 C-162.35723876953125,-460.3545837402344 -229.56820678710938,-359.6066589355469 -242.4512176513672,-278.9146728515625 C-372.9642028808594,-239.1316680908203 -518.5595092773438,-158.6022186279297 -518.5595092773438,41.882774353027344 C-518.5595092773438,406.7837829589844 -24.249601364135742,454.8515319824219 -24.249601364135742,454.8515319824219 C435.25640869140625,454.8515319824219 508.9298095703125,134.96873474121094 516.3078002929688,13.812735557556152 C523.685791015625,-107.3442611694336 433.3134460449219,-460.3545837402344 44.7607536315918,-460.3545837402344z"></path><path stroke-linecap="round" stroke-linejoin="miter" fill-opacity="0" stroke-miterlimit="10" stroke-dasharray=" 154.5578968750059 3.9660881881935226 115.00640034721604 417.9151590277911 50.403430335761236 184.57200486110415" stroke-dashoffset="192.77330017089844" stroke="rgb(196,224,225)" stroke-opacity="1" stroke-width="6" d=" M44.7607536315918,-460.3545837402344 C-162.35723876953125,-460.3545837402344 -229.56820678710938,-359.6066589355469 -242.4512176513672,-278.9146728515625 C-372.9642028808594,-239.1316680908203 -518.5595092773438,-158.6022186279297 -518.5595092773438,41.882774353027344 C-518.5595092773438,406.7837829589844 -24.249601364135742,454.8515319824219 -24.249601364135742,454.8515319824219 C435.25640869140625,454.8515319824219 508.9298095703125,134.96873474121094 516.3078002929688,13.812735557556152 C523.685791015625,-107.3442611694336 433.3134460449219,-460.3545837402344 44.7607536315918,-460.3545837402344z"></path></g></g><g transform="matrix(0.9999334216117859,0.011537211947143078,-0.011537211947143078,0.9999334216117859,126.56768798828125,157.96868896484375)" opacity="1" style="display: block;"><g opacity="1" transform="matrix(1,0,0,1,903.072998046875,723.364013671875)"><path fill="rgb(31,151,158)" fill-opacity="1" d=" M185.3179931640625,18.48200035095215 C178.68800354003906,0.2150000035762787 163.22999572753906,-8.427000045776367 145.322998046875,-11.104000091552734 C150.4550018310547,-22.7189998626709 150.77499389648438,-33.61800003051758 152.9459991455078,-47.744998931884766 C157.53399658203125,-77.5999984741211 153.03599548339844,-102.11299896240234 132.01400756835938,-125.76000213623047 C114.39800262451172,-145.5780029296875 89.27899932861328,-158.5 62.84000015258789,-160.90899658203125 C24.30500030517578,-164.4199981689453 -20.222000122070312,-155.5279998779297 -49.106998443603516,-128.406005859375 C-55.00699996948242,-122.86499786376953 -60.67100143432617,-115.74099731445312 -65.35199737548828,-107.76300048828125 C-73.11100006103516,-118.77999877929688 -84.11799621582031,-127.38400268554688 -96.35199737548828,-132.8179931640625 C-127.11100006103516,-146.4810028076172 -165.58799743652344,-140.125 -179.4739990234375,-101.82599639892578 C-195.05599975585938,-58.84700012207031 -193.69700622558594,1.3930000066757202 -174.86900329589844,43.426998138427734 C-147.63099670410156,104.23600006103516 -85.82099914550781,148.78900146484375 -21.33300018310547,160.031005859375 C-1.6469999551773071,163.46299743652344 22.881999969482422,164.41900634765625 42.22700119018555,161.80499267578125 C59.9900016784668,159.40499877929688 77.58999633789062,153.3249969482422 94.16600036621094,147.3179931640625 C125.98999786376953,135.78399658203125 153.83399963378906,121.55400085449219 172.63600158691406,93.23400115966797 C187.8249969482422,70.35600280761719 195.0570068359375,45.314998626708984 185.3179931640625,18.48200035095215z"></path></g></g><g transform="matrix(-1.349172830581665,-0.37378165125846863,-0.37378165125846863,1.349172830581665,1793.2071533203125,9.10955810546875)" opacity="1" style="display: block;"><g opacity="1" transform="matrix(1,0,0,1,903.6090087890625,791.9219970703125)"><path fill="rgb(31,151,158)" fill-opacity="1" d=" M-106.89997863769531,111.0766372680664 C-155.11622619628906,54.71392059326172 -139.54527282714844,-48.749656677246094 -91.0412826538086,-102.8486557006836 C-72.8572769165039,-123.13065338134766 -45.76778793334961,-126.23957824707031 -29.790212631225586,-107.7622299194336 C-13.887472152709961,-89.4818115234375 -49.51207733154297,0.6725926995277405 -49.51207733154297,0.6725926995277405 C-49.51207733154297,0.6725926995277405 23.16103172302246,-106.05118560791016 70.36803436279297,-75.3091812133789 C116.759033203125,-45.098182678222656 12.498445510864258,51.92066955566406 12.498445510864258,51.92066955566406 C12.498445510864258,51.92066955566406 83.34100341796875,17.048479080200195 100.44136047363281,18.329076766967773 C129.1243133544922,20.477867126464844 155.1505126953125,40.26854705810547 143.49343872070312,71.6531753540039 C127.96281433105469,113.51325225830078 70.72537994384766,128.05345153808594 31.895776748657227,137.05165100097656 C-12.00876522064209,147.16079711914062 -73.95330810546875,149.60614013671875 -106.89997863769531,111.0766372680664z"></path></g></g></g><g clip-path="url(#__lottie_element_30)" transform="matrix(1,0,0,1,100,100)" opacity="1" style="display: block;"><g transform="matrix(1,0,0,1,395.5460205078125,282.4519958496094)" opacity="1" style="display: block;"><g opacity="1" transform="matrix(1,0,0,1,315.25,210.25)"><path fill="rgb(31,151,158)" fill-opacity="1" d=" M-303,210 C-303,210 303,210 303,210 C309.62701416015625,210 315,204.6280059814453 315,198 C315,198 315,-198 315,-198 C315,-204.6269989013672 309.62701416015625,-210 303,-210 C303,-210 -303,-210 -303,-210 C-309.62701416015625,-210 -315,-204.6269989013672 -315,-198 C-315,-198 -315,198 -315,198 C-315,204.6280059814453 -309.62701416015625,210 -303,210z"></path></g><g opacity="1" transform="matrix(1,0,0,1,316.7229919433594,31.8700008392334)"><path fill="rgb(246,219,206)" fill-opacity="1" d=" M303.5950012207031,19.145999908447266 C303.5950012207031,19.145999908447266 -303.5950012207031,19.145999908447266 -303.5950012207031,19.145999908447266 C-303.5950012207031,19.145999908447266 -303.5950012207031,-19.145999908447266 -303.5950012207031,-19.145999908447266 C-303.5950012207031,-19.145999908447266 303.5950012207031,-19.145999908447266 303.5950012207031,-19.145999908447266 C303.5950012207031,-19.145999908447266 303.5950012207031,19.145999908447266 303.5950012207031,19.145999908447266z"></path></g></g><g mask="url(#__lottie_element_39)" style="display: block;"><g transform="matrix(1.2999999523162842,0,0,1.2999999523162842,300.9710388183594,168.5631103515625)" opacity="1"><g opacity="1" transform="matrix(1,0,0,1,315.2510070800781,105.77300262451172)"><path fill="rgb(196,224,225)" fill-opacity="1" d=" M127.96900177001953,29.142000198364258 C127.96900177001953,29.142000198364258 -127.96900177001953,29.142000198364258 -127.96900177001953,29.142000198364258 C-127.96900177001953,29.142000198364258 -127.96900177001953,-29.142000198364258 -127.96900177001953,-29.142000198364258 C-127.96900177001953,-29.142000198364258 127.96900177001953,-29.142000198364258 127.96900177001953,-29.142000198364258 C127.96900177001953,-29.142000198364258 127.96900177001953,29.142000198364258 127.96900177001953,29.142000198364258z"></path></g><g opacity="1" transform="matrix(1,0,0,1,315.2510070800781,157.447998046875)"><path fill="rgb(255,255,255)" fill-opacity="1" d=" M127.96900177001953,12.807999610900879 C127.96900177001953,12.807999610900879 -127.96900177001953,12.807999610900879 -127.96900177001953,12.807999610900879 C-127.96900177001953,12.807999610900879 -127.96900177001953,-12.807999610900879 -127.96900177001953,-12.807999610900879 C-127.96900177001953,-12.807999610900879 127.96900177001953,-12.807999610900879 127.96900177001953,-12.807999610900879 C127.96900177001953,-12.807999610900879 127.96900177001953,12.807999610900879 127.96900177001953,12.807999610900879z"></path></g><g opacity="1" transform="matrix(1,0,0,1,315.2510070800781,192.4969940185547)"><path fill="rgb(255,255,255)" fill-opacity="1" d=" M127.96900177001953,12.807999610900879 C127.96900177001953,12.807999610900879 -127.96900177001953,12.807999610900879 -127.96900177001953,12.807999610900879 C-127.96900177001953,12.807999610900879 -127.96900177001953,-12.807999610900879 -127.96900177001953,-12.807999610900879 C-127.96900177001953,-12.807999610900879 127.96900177001953,-12.807999610900879 127.96900177001953,-12.807999610900879 C127.96900177001953,-12.807999610900879 127.96900177001953,12.807999610900879 127.96900177001953,12.807999610900879z"></path></g><g opacity="1" transform="matrix(1,0,0,1,315.2510070800781,227.5469970703125)"><path fill="rgb(255,255,255)" fill-opacity="1" d=" M127.96900177001953,12.807999610900879 C127.96900177001953,12.807999610900879 -127.96900177001953,12.807999610900879 -127.96900177001953,12.807999610900879 C-127.96900177001953,12.807999610900879 -127.96900177001953,-12.807999610900879 -127.96900177001953,-12.807999610900879 C-127.96900177001953,-12.807999610900879 127.96900177001953,-12.807999610900879 127.96900177001953,-12.807999610900879 C127.96900177001953,-12.807999610900879 127.96900177001953,12.807999610900879 127.96900177001953,12.807999610900879z"></path></g><g opacity="1" transform="matrix(1,0,0,1,315.2510070800781,262.59600830078125)"><path fill="rgb(255,255,255)" fill-opacity="1" d=" M127.96900177001953,12.807999610900879 C127.96900177001953,12.807999610900879 -127.96900177001953,12.807999610900879 -127.96900177001953,12.807999610900879 C-127.96900177001953,12.807999610900879 -127.96900177001953,-12.807999610900879 -127.96900177001953,-12.807999610900879 C-127.96900177001953,-12.807999610900879 127.96900177001953,-12.807999610900879 127.96900177001953,-12.807999610900879 C127.96900177001953,-12.807999610900879 127.96900177001953,12.807999610900879 127.96900177001953,12.807999610900879z"></path></g><g opacity="1" transform="matrix(1,0,0,1,315.2510070800781,297.64599609375)"><path fill="rgb(255,255,255)" fill-opacity="1" d=" M127.96900177001953,12.807999610900879 C127.96900177001953,12.807999610900879 -127.96900177001953,12.807999610900879 -127.96900177001953,12.807999610900879 C-127.96900177001953,12.807999610900879 -127.96900177001953,-12.807999610900879 -127.96900177001953,-12.807999610900879 C-127.96900177001953,-12.807999610900879 127.96900177001953,-12.807999610900879 127.96900177001953,-12.807999610900879 C127.96900177001953,-12.807999610900879 127.96900177001953,12.807999610900879 127.96900177001953,12.807999610900879z"></path></g><g opacity="1" transform="matrix(1,0,0,1,399.78399658203125,350.0639953613281)"><path fill="rgb(255,64,104)" fill-opacity="1" d=" M31.43600082397461,12.807999610900879 C31.43600082397461,12.807999610900879 -31.43600082397461,12.807999610900879 -31.43600082397461,12.807999610900879 C-38.0359992980957,12.807999610900879 -43.43600082397461,7.4079999923706055 -43.43600082397461,0.8080000281333923 C-43.43600082397461,0.8080000281333923 -43.43600082397461,-0.8080000281333923 -43.43600082397461,-0.8080000281333923 C-43.43600082397461,-7.4079999923706055 -38.0359992980957,-12.807999610900879 -31.43600082397461,-12.807999610900879 C-31.43600082397461,-12.807999610900879 31.43600082397461,-12.807999610900879 31.43600082397461,-12.807999610900879 C38.0359992980957,-12.807999610900879 43.43600082397461,-7.4079999923706055 43.43600082397461,-0.8080000281333923 C43.43600082397461,-0.8080000281333923 43.43600082397461,0.8080000281333923 43.43600082397461,0.8080000281333923 C43.43600082397461,7.4079999923706055 38.0359992980957,12.807999610900879 31.43600082397461,12.807999610900879z"></path></g><g opacity="1" transform="matrix(1,0,0,1,0,0)"><path stroke-linecap="round" stroke-linejoin="miter" fill-opacity="0" stroke-miterlimit="10" stroke="rgb(31,151,158)" stroke-opacity="1" stroke-width="5" d=" M197.5959930419922,157.44700622558594 C197.5959930419922,157.44700622558594 302.9630126953125,157.44700622558594 302.9630126953125,157.44700622558594"></path></g><g opacity="1" transform="matrix(1,0,0,1,0,0)"><path stroke-linecap="round" stroke-linejoin="miter" fill-opacity="0" stroke-miterlimit="10" stroke="rgb(31,151,158)" stroke-opacity="1" stroke-width="5" d=" M197.5959930419922,192.4969940185547 C197.5959930419922,192.4969940185547 272.3500061035156,192.4969940185547 272.3500061035156,192.4969940185547"></path></g><g opacity="1" transform="matrix(1,0,0,1,0,0)"><path stroke-linecap="round" stroke-linejoin="miter" fill-opacity="0" stroke-miterlimit="10" stroke="rgb(31,151,158)" stroke-opacity="1" stroke-width="5" d=" M197.5959930419922,227.5469970703125 C197.5959930419922,227.5469970703125 287.65301513671875,227.5469970703125 287.65301513671875,227.5469970703125"></path></g><g opacity="1" transform="matrix(1,0,0,1,0,0)"><path stroke-linecap="round" stroke-linejoin="miter" fill-opacity="0" stroke-miterlimit="10" stroke="rgb(31,151,158)" stroke-opacity="1" stroke-width="5" d=" M197.5959930419922,262.59600830078125 C197.5959930419922,262.59600830078125 287.65301513671875,262.59600830078125 287.65301513671875,262.59600830078125"></path></g><g opacity="1" transform="matrix(1,0,0,1,0,0)"><path stroke-linecap="round" stroke-linejoin="miter" fill-opacity="0" stroke-miterlimit="10" stroke="rgb(31,151,158)" stroke-opacity="1" stroke-width="5" d=" M197.5959930419922,297.64599609375 C197.5959930419922,297.64599609375 272.3500061035156,297.64599609375 272.3500061035156,297.64599609375"></path></g><g opacity="1" transform="matrix(1,0,0,1,315.25,98.99299621582031)"><path stroke-linecap="round" stroke-linejoin="miter" fill-opacity="0" stroke-miterlimit="10" stroke="rgb(31,151,158)" stroke-opacity="1" stroke-width="5" d=" M44.72200012207031,-22.361000061035156 C44.72200012207031,2.3380000591278076 24.698999404907227,22.361000061035156 -0.0010000000474974513,22.361000061035156 C-24.700000762939453,22.361000061035156 -44.72200012207031,2.3380000591278076 -44.72200012207031,-22.361000061035156"></path></g></g></g><g transform="matrix(1,0,0,1,395.5460205078125,282.4519958496094)" opacity="1" style="display: block;"><g opacity="1" transform="matrix(1,0,0,1,316.7229919433594,31.8700008392334)"><path fill="rgb(246,219,206)" fill-opacity="1" d=" M303.5950012207031,19.145999908447266 C303.5950012207031,19.145999908447266 -303.5950012207031,19.145999908447266 -303.5950012207031,19.145999908447266 C-303.5950012207031,19.145999908447266 -303.5950012207031,-19.145999908447266 -303.5950012207031,-19.145999908447266 C-303.5950012207031,-19.145999908447266 303.5950012207031,-19.145999908447266 303.5950012207031,-19.145999908447266 C303.5950012207031,-19.145999908447266 303.5950012207031,19.145999908447266 303.5950012207031,19.145999908447266z"></path></g></g><g transform="matrix(1,0,0,1,395.5460205078125,282.4519958496094)" opacity="1" style="display: block;"><g opacity="1" transform="matrix(1,0,0,1,315.25,210.25)"><path fill="rgb(32,32,32)" fill-opacity="1" d=" M303,-210 C303,-210 -303,-210 -303,-210 C-309.62701416015625,-210 -315,-204.6269989013672 -315,-198 C-315,-198 -315,198 -315,198 C-315,204.6280059814453 -309.62701416015625,210 -303,210 C-303,210 303,210 303,210 C309.62799072265625,210 315,204.6280059814453 315,198 C315,198 315,-198 315,-198 C315,-204.6269989013672 309.62799072265625,-210 303,-210z M290,181 C290,183.20899963378906 288.2099914550781,185 286,185 C286,185 -286,185 -286,185 C-288.2090148925781,185 -290,183.20899963378906 -290,181 C-290,181 -290,-181 -290,-181 C-290,-183.20899963378906 -288.2090148925781,-185 -286,-185 C-286,-185 286,-185 286,-185 C288.2099914550781,-185 290,-183.20899963378906 290,-181 C290,-181 290,181 290,181z"></path></g><g opacity="1" transform="matrix(1,0,0,1,315.25,494.4840087890625)"><path fill="rgb(32,32,32)" fill-opacity="1" d=" M73.60099792480469,92.09200286865234 C73.60099792480469,92.09200286865234 -73.60099792480469,92.09200286865234 -73.60099792480469,92.09200286865234 C-73.60099792480469,92.09200286865234 -73.60099792480469,-92.09200286865234 -73.60099792480469,-92.09200286865234 C-73.60099792480469,-92.09200286865234 73.60099792480469,-92.09200286865234 73.60099792480469,-92.09200286865234 C73.60099792480469,-92.09200286865234 73.60099792480469,92.09200286865234 73.60099792480469,92.09200286865234z"></path></g></g></g><g clip-path="url(#__lottie_element_11)" transform="matrix(1,0,0,1,100,100)" opacity="1" style="display: block;"><g transform="matrix(0.6926878094673157,-0.40022948384284973,0.40022948384284973,0.6926878094673157,440.92376708984375,801.9117431640625)" opacity="1" style="display: block;"><g opacity="1" transform="matrix(1,0,0,1,110.62100219726562,240.14300537109375)"><path fill="rgb(246,219,206)" fill-opacity="1" d=" M-16.46500015258789,140.7790069580078 C-16.46500015258789,140.7790069580078 -45.04999923706055,112.62799835205078 -33.7869987487793,59.12900161743164 C-33.7869987487793,59.12900161743164 -110.37100219726562,42.797000885009766 -99.10900115966797,23.650999069213867 C-87.84700012207031,4.505000114440918 -40.54399871826172,13.175999641418457 -40.54399871826172,13.175999641418457 C-40.54399871826172,13.175999641418457 -97.98300170898438,-24.82200050354004 -86.72000122070312,-47.32500076293945 C-75.45800018310547,-69.8270034790039 -22.525999069213867,-36.595001220703125 -22.525999069213867,-36.595001220703125 C-22.525999069213867,-36.595001220703125 -84.46800231933594,-55.31999969482422 -69.82599639892578,-85.66100311279297 C-55.18600082397461,-116.00299835205078 0,-63.06999969482422 0,-63.06999969482422 C0,-63.06999969482422 -68.69999694824219,-97.66400146484375 -55.18600082397461,-125.9800033569336 C-41.67100143432617,-154.2949981689453 37.16600036621094,-97.38200378417969 37.16600036621094,-97.38200378417969 C37.16600036621094,-97.38200378417969 110.37200164794922,-42.65399932861328 103.61399841308594,3.4509999752044678 C96.85600280761719,49.55400085449219 63.63800048828125,145.28500366210938 53.779998779296875,149.7899932861328 C43.92399978637695,154.2949981689453 -16.46500015258789,140.7790069580078 -16.46500015258789,140.7790069580078z"></path></g></g><g transform="matrix(0.6926878094673157,-0.40022948384284973,0.40022948384284973,0.6926878094673157,440.92376708984375,801.9117431640625)" opacity="1" style="display: block;"><g opacity="1" transform="matrix(1,0,0,1,134.3459930419922,154.48199462890625)"><path fill="rgb(32,32,32)" fill-opacity="1" d=" M5.697000026702881,150.6479949951172 C5.697000026702881,150.6479949951172 -101.197998046875,111.74199676513672 -101.197998046875,111.74199676513672 C-111.04199981689453,108.15899658203125 -116.13700103759766,97.23300170898438 -112.55400085449219,87.38800048828125 C-112.55400085449219,87.38800048828125 -30.04800033569336,-139.29299926757812 -30.04800033569336,-139.29299926757812 C-26.46500015258789,-149.13800048828125 -15.539999961853027,-154.2310028076172 -5.696000099182129,-150.6479949951172 C-5.696000099182129,-150.6479949951172 101.1989974975586,-111.74199676513672 101.1989974975586,-111.74199676513672 C111.04399871826172,-108.15899658203125 116.13700103759766,-97.23400115966797 112.55400085449219,-87.38999938964844 C112.55400085449219,-87.38999938964844 30.049999237060547,139.29200744628906 30.049999237060547,139.29200744628906 C26.466999053955078,149.13600158691406 15.541999816894531,154.2310028076172 5.697000026702881,150.6479949951172z"></path></g><g opacity="1" transform="matrix(1,0,0,1,134.3470001220703,154.4810028076172)"><path fill="rgb(31,151,158)" fill-opacity="0.02" d=" M98.80400085449219,-105.16300201416016 C98.80400085449219,-105.16300201416016 68.66999816894531,-116.13099670410156 68.66999816894531,-116.13099670410156 C68.66999816894531,-116.13099670410156 66.29199981689453,-109.60099792480469 66.29199981689453,-109.60099792480469 C64.03500366210938,-103.39900207519531 57.1150016784668,-100.1719970703125 50.9119987487793,-102.42900085449219 C50.9119987487793,-102.42900085449219 26.84000015258789,-111.19100189208984 26.84000015258789,-111.19100189208984 C20.63800048828125,-113.4489974975586 17.40999984741211,-120.37000274658203 19.667999267578125,-126.5719985961914 C19.667999267578125,-126.5719985961914 22.04400062561035,-133.1009979248047 22.04400062561035,-133.1009979248047 C22.04400062561035,-133.1009979248047 -8.090999603271484,-144.06900024414062 -8.090999603271484,-144.06900024414062 C-14.291999816894531,-146.32699584960938 -21.214000701904297,-143.0989990234375 -23.469999313354492,-136.89700317382812 C-23.469999313354492,-136.89700317382812 -105.97599792480469,89.78399658203125 -105.97599792480469,89.78399658203125 C-108.23300170898438,95.98600006103516 -105.00599670410156,102.90699768066406 -98.8030014038086,105.16500091552734 C-98.8030014038086,105.16500091552734 8.090999603271484,144.0709991455078 8.090999603271484,144.0709991455078 C14.291999816894531,146.3280029296875 21.214000701904297,143.1009979248047 23.47100067138672,136.8990020751953 C23.47100067138672,136.8990020751953 105.97699737548828,-89.78199768066406 105.97699737548828,-89.78199768066406 C108.23400115966797,-95.98400115966797 105.00599670410156,-102.90599822998047 98.80400085449219,-105.16300201416016z"></path></g></g><g transform="matrix(0.6926878094673157,-0.40022948384284973,0.40022948384284973,0.6926878094673157,440.92376708984375,801.9117431640625)" opacity="1" style="display: block;"><g opacity="1" transform="matrix(1,0,0,1,131.17100524902344,157.718994140625)"><path fill="rgb(255,255,255)" fill-opacity="1" d=" M3.427000045776367,21.589000701904297 C3.427000045776367,21.589000701904297 -15.5,-19.26099967956543 -15.5,-19.26099967956543 C-10.869999885559082,-18.820999145507812 -5.758999824523926,-19.66200065612793 -0.8560000061988831,-21.947999954223633 C0.6150000095367432,-22.635000228881836 1.99399995803833,-23.426000595092773 3.2809998989105225,-24.29199981689453 C3.2809998989105225,-24.29199981689453 -10.897000312805176,-54.70000076293945 -10.897000312805176,-54.70000076293945 C-12.387999534606934,-54.27000045776367 -13.880000114440918,-53.72200012207031 -15.352999687194824,-53.0359992980957 C-20.479000091552734,-50.64500045776367 -25.12700080871582,-46.87699890136719 -28.329999923706055,-42.19499969482422 C-32.979000091552734,-35.39799880981445 -33.60499954223633,-25.679000854492188 -33.05500030517578,-17.69499969482422 C-32.387001037597656,-7.988999843597412 -29.395000457763672,1.465000033378601 -25.302000045776367,10.244999885559082 C-15.850000381469727,30.511999130249023 4.540999889373779,54.70000076293945 29.46500015258789,43.077999114990234 C30.937999725341797,42.391998291015625 32.31700134277344,41.599998474121094 33.604000091552734,40.73400115966797 C33.604000091552734,40.73400115966797 19.424999237060547,10.32699966430664 19.424999237060547,10.32699966430664 C17.933000564575195,10.756999969482422 16.441999435424805,11.303999900817871 14.970000267028809,11.989999771118164 C10.022000312805176,14.29699993133545 6.066999912261963,17.71500015258789 3.427000045776367,21.589000701904297z"></path></g><g opacity="1" transform="matrix(1,0,0,1,162.3419952392578,142.4199981689453)"><path stroke-linecap="round" stroke-linejoin="round" fill-opacity="0" stroke="rgb(255,255,255)" stroke-opacity="1" stroke-width="4" d=" M-11.718000411987305,-11.843999862670898 C-4.210000038146973,-15.345000267028809 4.715000152587891,-12.095999717712402 8.215999603271484,-4.589000225067139 C11.718000411987305,2.9200000762939453 8.468999862670898,11.843999862670898 0.9610000252723694,15.345000267028809"></path></g><g opacity="0" transform="matrix(1,0,0,1,165.02999877929688,141.5449981689453)"><path stroke-linecap="round" stroke-linejoin="round" fill-opacity="0" stroke="rgb(255,255,255)" stroke-opacity="1" stroke-width="4" d=" M-17.576000213623047,-17.767000198364258 C-6.313000202178955,-23.01799964904785 7.072999954223633,-18.145000457763672 12.324999809265137,-6.882999897003174 C17.576000213623047,4.380000114440918 12.704000473022461,17.766000747680664 1.4429999589920044,23.01799964904785"></path></g><g opacity="0" transform="matrix(1,0,0,1,167.718994140625,140.6699981689453)"><path stroke-linecap="round" stroke-linejoin="round" fill-opacity="0" stroke="rgb(255,255,255)" stroke-opacity="1" stroke-width="4" d=" M-23.43400001525879,-23.68899917602539 C-8.418000221252441,-30.69099998474121 9.430000305175781,-24.19300079345703 16.43199920654297,-9.177000045776367 C23.43400001525879,5.839000225067139 16.93899917602539,23.687000274658203 1.9220000505447388,30.690000534057617"></path></g><g opacity="0" transform="matrix(0.9790419340133667,0.2036588340997696,-0.2036588340997696,0.9790419340133667,874.3579711914062,-11.649999618530273)"><path fill="rgb(255,255,255)" fill-opacity="1" d=" M-680.083984375,221.60899353027344 C-697.1810302734375,221.302001953125 -705.2139892578125,228.71800231933594 -707.0960083007812,252.20399475097656 C-708.698974609375,285.6199951171875 -690.7730102539062,273.5929870605469 -697.7919921875,295.94500732421875 C-729.6849975585938,298.2850036621094 -725.3989868164062,303.72601318359375 -731.114990234375,314.5159912109375 C-730.7860107421875,314.4729919433594 -653.3629760742188,324.5419921875 -653.06298828125,325.4110107421875 C-648.9959716796875,302.5669860839844 -670.5640258789062,303.2229919433594 -679.7459716796875,299.12701416015625 C-679.5819702148438,278.2869873046875 -671.2080078125,290.74700927734375 -660.8809814453125,259.1549987792969 C-657.6179809570312,233.5 -663.4530029296875,223.86199951171875 -680.083984375,221.60899353027344z"></path></g><g opacity="0" transform="matrix(0.9455185532569885,0.32556816935539246,-0.32556816935539246,0.9455185532569885,122.85099792480469,183.1280059814453)"><path fill="rgb(255,255,255)" fill-opacity="1" d=" M40,0 C40,0 40,0 40,0 C40,2.759500026702881 37.759498596191406,5 35,5 C35,5 -35,5 -35,5 C-37.759498596191406,5 -40,2.759500026702881 -40,0 C-40,0 -40,0 -40,0 C-40,-2.759500026702881 -37.759498596191406,-5 -35,-5 C-35,-5 35,-5 35,-5 C37.759498596191406,-5 40,-2.759500026702881 40,0z"></path></g></g><g transform="matrix(0.6926878094673157,-0.40022948384284973,0.40022948384284973,0.6926878094673157,440.92376708984375,801.9117431640625)" opacity="1" style="display: block;"><g opacity="1" transform="matrix(1,0,0,1,71.1760025024414,233.06399536132812)"><path fill="rgb(196,224,225)" fill-opacity="1" d=" M15.875,5.7779998779296875 C12.6850004196167,14.545999526977539 2.989000082015991,19.06599998474121 -5.7779998779296875,15.875 C-14.545999526977539,12.682999610900879 -19.06599998474121,2.989000082015991 -15.875,-5.7779998779296875 C-12.6850004196167,-14.545000076293945 -2.990000009536743,-19.06599998474121 5.7769999504089355,-15.875 C14.545000076293945,-12.684000015258789 19.06599998474121,-2.990000009536743 15.875,5.7779998779296875z"></path></g><g opacity="1" transform="matrix(1,0,0,1,126.8280029296875,253.31900024414062)"><path fill="rgb(255,255,255)" fill-opacity="1" d=" M15.875,5.7779998779296875 C12.684000015258789,14.545000076293945 2.98799991607666,19.06599998474121 -5.7779998779296875,15.87600040435791 C-14.545999526977539,12.684000015258789 -19.065000534057617,2.990000009536743 -15.875,-5.7779998779296875 C-12.684000015258789,-14.543999671936035 -2.990000009536743,-19.065000534057617 5.7769999504089355,-15.87399959564209 C14.545000076293945,-12.682999610900879 19.06599998474121,-2.990000009536743 15.875,5.7779998779296875z"></path></g></g><g transform="matrix(0.6926878094673157,-0.40022948384284973,0.40022948384284973,0.6926878094673157,440.92376708984375,801.9117431640625)" opacity="1" style="display: block;"><g opacity="1" transform="matrix(1,0,0,1,139.36300659179688,249.83299255371094)"><path fill="rgb(246,219,206)" fill-opacity="1" d=" M6.757999897003174,84.46800231933594 C6.757999897003174,84.46800231933594 -14.640000343322754,61.268001556396484 -11.26200008392334,17.68199920654297 C-11.26200008392334,17.68199920654297 -44.2140007019043,-54.85499954223633 -23.94099998474121,-64.31500244140625 C-3.6689999103546143,-73.7760009765625 44.39500045776367,-3.4159998893737793 44.77799987792969,33.55400085449219"></path></g></g></g><g clip-path="url(#__lottie_element_4)" transform="matrix(1,0,0,1,100,100)" opacity="1" style="display: block;"><g transform="matrix(1,0,0,1,178.11563110351562,173.48504638671875)" opacity="1" style="display: block;"><g opacity="1" transform="matrix(1,0,0,1.100000023841858,328.4549865722656,448.0260009765625)"><path fill="rgb(255,255,255)" fill-opacity="1" d=" M67.58699798583984,-10.729999542236328 C67.58699798583984,-10.729999542236328 -66.28500366210938,-10.729999542236328 -66.28500366210938,-10.729999542236328 C-66.98300170898438,-2.943000078201294 -68.48600006103516,4.175000190734863 -70.71399688720703,10.729999542236328 C-70.71399688720703,10.729999542236328 70.71499633789062,10.729999542236328 70.71499633789062,10.729999542236328 C69.19300079345703,3.5220000743865967 68.20500183105469,-3.753000020980835 67.58699798583984,-10.729999542236328z"></path></g><g opacity="1" transform="matrix(1,0,0,1,362.3210144042969,327.91900634765625)"><path fill="rgb(246,219,206)" fill-opacity="1" d=" M34.3380012512207,62.91699981689453 C34.3380012512207,62.91699981689453 77.09874725341797,64.60700225830078 91.45774841308594,11.392999649047852 C101.29874420166016,-25.076000213623047 100.82574462890625,-78.99700164794922 99.55374908447266,-109.322998046875 C91.25774383544922,-102.99299621582031 41.97991180419922,-116.4240951538086 32.05833053588867,-115.88740539550781 C16.97201156616211,-115.0725326538086 -11.060813903808594,-109.64451599121094 -22.738813400268555,-94.63151550292969 C-35.76781463623047,-77.8795166015625 -76.7689437866211,-21.50851821899414 -99.927001953125,87.84400177001953 C-99.31300354003906,95.53099822998047 -99.3270034790039,102.66999816894531 -99.9229965209961,109.322998046875 C-99.9229965209961,109.322998046875 33.948001861572266,109.322998046875 33.948001861572266,109.322998046875 C31.722000122070312,84.16400146484375 34.3380012512207,62.91699981689453 34.3380012512207,62.91699981689453z"></path></g><g opacity="1" transform="matrix(1,0,0,1,425.5589904785156,695.5419921875)"><path fill="rgb(255,255,255)" fill-opacity="1" d=" M149.28292846679688,90.9356460571289 C114.20317077636719,99.96908569335938 96.06316375732422,142.625732421875 96.04138946533203,142.76744079589844 C96.0123291015625,142.95651245117188 229.4052734375,235.65155029296875 229.4052734375,235.65155029296875 C229.4052734375,235.65155029296875 247.08200073242188,22.239999771118164 221.74200439453125,-58.8489990234375 C196.4010009765625,-139.93800354003906 44.36000061035156,-156.83299255371094 2.118000030517578,-186.1320037841797 C-13.79699993133545,-197.17100524902344 -22.153011322021484,-216.71499633789062 -26.38901138305664,-236.78799438476562 C-26.38901138305664,-236.78799438476562 -167.81900024414062,-236.78799438476562 -167.81900024414062,-236.78799438476562 C-178.84300231933594,-204.35299682617188 -207.73599243164062,-185.79400634765625 -246.08399963378906,-169.11500549316406 C-289.0669860839844,-150.42100524902344 -335.8489990234375,-141.71099853515625 -371.17498779296875,-108.00299835205078 C-419.2099914550781,-62.167999267578125 -425.30999755859375,9.093999862670898 -425.2829895019531,71.23200225830078 C-425.2829895019531,71.23200225830078 -425.2829895019531,236.78799438476562 -425.2829895019531,236.78799438476562 C-425.2829895019531,236.78799438476562 233.138427734375,238.56260681152344 233.138427734375,238.56260681152344 C233.138427734375,238.56260681152344 193.28407287597656,120.58528137207031 193.23870849609375,119.04222869873047 C193.1168670654297,118.91395568847656 180.788818359375,82.83016967773438 149.28292846679688,90.9356460571289z"></path></g><g opacity="1" transform="matrix(0.9999982714653015,-0.001867501181550324,0.001867501181550324,0.9999982714653015,336.4909973144531,230.71400451660156)"><path fill="rgb(32,32,32)" fill-opacity="1" d=" M131.355712890625,-146.59300231933594 C97.54071044921875,-177.02699279785156 49.31742858886719,-153.1124267578125 49.31742858886719,-153.1124267578125 C49.31742858886719,-153.1124267578125 0.11400000005960464,-185.447998046875 -57.95500183105469,-158.07200622558594 C-129.7310028076172,-124.23400115966797 -166.4529266357422,-64.26115417480469 -166.18492126464844,16.258848190307617 C-166.02291870117188,64.6458511352539 -144.6826629638672,92.75542449951172 -111.41888427734375,122.82251739501953 C-91.03888702392578,140.44252014160156 -77.5199966430664,156.65199279785156 -75.30400085449219,184.38800048828125 C2.140000104904175,185.447998046875 -2.0671896934509277,145.44400024414062 -2.0671896934509277,145.44400024414062 C57.623809814453125,145.44400024414062 66.39381408691406,66.8290023803711 66.39381408691406,66.8290023803711 C36.61281204223633,63.512001037597656 35.95880889892578,28.770999908447266 48.98881149291992,12.019000053405762 C60.665809631347656,-2.993000030517578 75.70880889892578,-0.9599999785423279 92.57581329345703,-1.871000051498413 C103.66680908203125,-2.4709999561309814 116.30081939697266,-6.447999954223633 124.5968246459961,-12.777999877929688 C160.95782470703125,-40.5260009765625 168.03671264648438,-113.58000183105469 131.355712890625,-146.59300231933594z"></path></g><g opacity="1" transform="matrix(1,0,0,1,416.7443542480469,277.86328125)"><path fill="rgb(255,255,255)" fill-opacity="1" d=" M-0.35499998927116394,1.871999979019165 C-0.35499998927116394,1.871999979019165 -13.696000099182129,2.938999891281128 -13.696000099182129,-11.736000061035156 C-13.696000099182129,-26.41200065612793 -1.7929999828338623,-27.7549991607666 5.7729997634887695,-23.680999755859375 C13.34000015258789,-19.606000900268555 13.696000099182129,-8.230999946594238 13.696000099182129,-0.24300000071525574 C13.696000099182129,7.744999885559082 9.25,27.756000518798828 9.25,27.756000518798828 C9.25,27.756000518798828 0.9789999723434448,27.756000518798828 0.9789999723434448,27.756000518798828 C0.9789999723434448,27.756000518798828 -0.35499998927116394,1.871999979019165 -0.35499998927116394,1.871999979019165z"></path></g><g opacity="1" transform="matrix(0.800000011920929,0,0,0.800000011920929,223.87338256835938,139.60728454589844)"><path fill="rgb(255,255,255)" fill-opacity="1" d=" M60.347999572753906,5.591000080108643 C80.91999816894531,-53.43600082397461 15.715999603271484,-85.59600067138672 -29.746999740600586,-51.9739990234375 C-41.354000091552734,-43.39099884033203 -52.3650016784668,-32.57899856567383 -60.301998138427734,-20.424999237060547 C-68.94100189208984,-7.193999767303467 -73.50700378417969,6.954999923706055 -75.0739974975586,19.777999877929688 C-80.91999816894531,67.61900329589844 -36.65299987792969,85.59600067138672 2.686000108718872,67.94499969482422 C16.163999557495117,61.89699935913086 29.841999053955078,51.926998138427734 40.6609992980957,39.426998138427734 C49.71900177001953,28.96299934387207 56.29899978637695,17.20800018310547 60.347999572753906,5.591000080108643z"></path><path stroke-linecap="round" stroke-linejoin="round" fill-opacity="0" stroke="rgb(32,32,32)" stroke-opacity="1" stroke-width="4" d=" M60.347999572753906,5.591000080108643 C80.91999816894531,-53.43600082397461 15.715999603271484,-85.59600067138672 -29.746999740600586,-51.9739990234375 C-41.354000091552734,-43.39099884033203 -52.3650016784668,-32.57899856567383 -60.301998138427734,-20.424999237060547 C-68.94100189208984,-7.193999767303467 -73.50700378417969,6.954999923706055 -75.0739974975586,19.777999877929688 C-80.91999816894531,67.61900329589844 -36.65299987792969,85.59600067138672 2.686000108718872,67.94499969482422 C16.163999557495117,61.89699935913086 29.841999053955078,51.926998138427734 40.6609992980957,39.426998138427734 C49.71900177001953,28.96299934387207 56.29899978637695,17.20800018310547 60.347999572753906,5.591000080108643z"></path></g><g opacity="1" transform="matrix(1,0,0,1,168.29193115234375,106.18339538574219)"><path fill="rgb(32,32,32)" fill-opacity="1" d=" M51.45399856567383,-82.03399658203125 C37.67499923706055,-89.64099884033203 21.974000930786133,-93.47799682617188 6.775000095367432,-93.15499877929688 C-20.04199981689453,-92.58200073242188 -54.68199920654297,-79.90499877929688 -71.95800018310547,-57.88999938964844 C-88.95700073242188,-36.229000091552734 -95.21399688720703,-8.460000038146973 -89.39099884033203,20.315000534057617 C-86.18099975585938,36.17399978637695 -79.5739974975586,51.66600036621094 -68.98899841308594,63.560001373291016 C-57.46799850463867,76.50700378417969 -41.82699966430664,84.54399871826172 -25.82900047302246,88.63300323486328 C-6.86899995803833,93.47799682617188 13.170999526977539,93.05000305175781 31.083999633789062,86.23300170898438 C49.39400100708008,79.26399993896484 65.0790023803711,65.76499938964844 76.29499816894531,48.89899826049805 C85.77400207519531,34.643001556396484 92.20500183105469,17.801000595092773 93.70899963378906,0.03999999910593033 C95.21399688720703,-17.72100067138672 91.6259994506836,-36.38399887084961 82.62899780273438,-51.917999267578125 C75.09700012207031,-64.9229965209961 64.08300018310547,-75.06199645996094 51.45399856567383,-82.03399658203125z"></path></g></g></g></g></svg>