<svg width="70" height="71" viewBox="0 0 70 71" fill="none" xmlns="http://www.w3.org/2000/svg">
<rect x="11.2227" y="15.8281" width="48.0966" height="43.287" fill="white"/>
<path d="M22.092 31.3219C22.092 31.3219 20.8259 31.322 19.6592 32.4388V27.9219H16.8047V39.7849H19.6841V38.8667C19.6841 38.8667 20.3544 40.0827 22.0671 40.0827C22.0671 40.0827 26.0636 39.9338 26.0636 35.6403C26.0884 35.6403 25.9395 31.3219 22.092 31.3219ZM21.4466 37.5761C20.4288 37.5761 19.6097 36.7571 19.6097 35.7396C19.6097 34.722 20.4288 33.903 21.4466 33.903C22.4643 33.903 23.2834 34.722 23.2834 35.7396C23.2834 36.7571 22.4643 37.5761 21.4466 37.5761Z" fill="#F5821F"/>
<path d="M27.0078 27.6494V30.4042C27.0078 30.4042 28.2987 30.3546 28.2987 32.7619V39.7855H31.054V32.1167C31.054 32.1167 31.1533 27.6494 27.0078 27.6494Z" fill="#F5821F"/>
<path d="M34.9999 0.597656C15.6631 0.597656 0 16.2578 0 35.5911C0 54.9243 15.6631 70.5845 34.9999 70.5845C54.3368 70.5845 70 54.9243 70 35.5911C70 16.2578 54.3368 0.597656 34.9999 0.597656ZM58.2341 43.3591C58.2341 47.4293 54.9326 50.7301 50.8865 50.7301H39.9398L36.2164 56.8105C36.2164 56.8105 36.1914 56.885 36.0921 56.9843C35.8687 57.3565 35.4716 57.6047 34.9999 57.6047C34.5283 57.6047 34.1311 57.3565 33.9077 56.9594C33.8333 56.8601 33.7836 56.7857 33.7836 56.7857L30.0354 50.7053H19.0886C15.0426 50.7053 11.7411 47.4045 11.7411 43.3343V25.8624C11.7411 21.7923 15.0177 18.4914 19.0886 18.4914H50.8865C54.9326 18.4914 58.2341 21.7923 58.2341 25.8624V43.3591Z" fill="#53B847"/>
<path d="M37.7559 31.3467C37.7559 31.3467 33.0396 31.3467 33.0396 35.7394C33.0396 35.7394 32.8907 40.0826 37.7559 40.0826C37.7559 40.0826 42.5715 40.0826 42.5715 35.7394C42.5715 35.7394 42.7204 31.3467 37.7559 31.3467ZM37.7559 37.576C36.7382 37.576 35.9191 36.757 35.9191 35.7394C35.9191 34.7219 36.7382 33.9029 37.7559 33.9029C38.7736 33.9029 39.5928 34.7219 39.5928 35.7394C39.5928 36.757 38.7736 37.576 37.7559 37.576Z" fill="#F5821F"/>
<path d="M50.4161 32.4386C50.4161 32.4386 49.5969 31.3466 48.0331 31.3466C48.0331 31.3466 44.0117 31.1728 44.0117 35.7145C44.0117 35.7145 43.9621 39.9336 47.9338 39.9336C47.9338 39.9336 49.5473 40.008 50.441 38.8416V39.5117C50.441 39.5117 50.6396 41.5964 48.6289 41.5964H47.9338V44.1279H49.0509C49.0509 44.1279 53.2211 44.1775 53.2211 39.6854V31.6444H50.4658V32.4386H50.4161ZM48.7033 37.5759C47.6856 37.5759 46.8665 36.7569 46.8665 35.7393C46.8665 34.7218 47.6856 33.9028 48.7033 33.9028C49.7211 33.9028 50.5402 34.7218 50.5402 35.7393C50.5402 36.7569 49.7211 37.5759 48.7033 37.5759Z" fill="#F5821F"/>
</svg>
