<svg width="22" height="25" viewBox="0 0 22 25" fill="none" xmlns="http://www.w3.org/2000/svg">
<path d="M0.491666 24.1809L12.0972 12.1437L0.501388 0.128052C0.191666 0.315122 0 0.748261 0 1.31523V23.0053C0.00415386 23.5722 0.188888 23.9737 0.491666 24.1809Z" fill="white"/>
<path d="M12.5127 11.8113L15.9697 8.22532L1.89188 0.218732C1.65483 0.0758727 1.38556 0.000413752 1.11133 0L12.5113 11.8099L12.5127 11.8113Z" fill="white"/>
<path d="M12.5123 12.4775L1.07617 24.3392C1.36321 24.3442 1.64593 24.2665 1.89284 24.1147L15.9984 16.0866L12.5123 12.4775Z" fill="white"/>
<path d="M21.0701 11.1307L16.3854 8.4613L12.834 12.1451L16.4118 15.852L21.0687 13.1899C22.059 12.6243 22.0589 11.6933 21.0701 11.1307Z" fill="white"/>
</svg>
