<svg width="79" height="86" viewBox="0 0 79 86" fill="none" xmlns="http://www.w3.org/2000/svg">
<path d="M78.1341 85.3883H64.3477V68H78.1341V71.4777H68.8189V74.8311H76.1469V78.3088H68.8189V81.9107H78.1341V85.3883Z" fill="black"/>
<path d="M61.8581 85.3883C58.0428 85.3883 54.4225 85.3883 51.1767 85.3883C49.5538 85.3883 48.3615 85.0074 47.5997 84.2457C46.8379 83.4839 46.457 82.5399 46.457 80.917V72.9681C46.457 71.2293 46.8462 69.9707 47.6245 69.1923C48.4194 68.3974 49.6863 68 51.4251 68H60.3677V71.4777H52.4187C51.4251 71.4777 50.9283 71.9745 50.9283 72.9681V80.917C50.9283 81.2979 51.036 81.6043 51.2512 81.8361C51.4831 82.0514 51.7894 82.1591 52.1703 82.1591C54.0748 82.1591 55.8136 82.1177 57.3868 82.0349V78.433H54.1576V75.4521H61.8581V85.3883Z" fill="black"/>
<path d="M32.9142 85.3883H28.0703L34.653 68H39.6211L46.2038 85.3883H41.36L40.2421 82.2833H34.032L32.9142 85.3883ZM35.1498 79.054H39.1243L37.1371 73.2165L35.1498 79.054Z" fill="black"/>
<path d="M24.594 85.3883H20.1227V71.4777H14.9062V68H29.8105V71.4777H24.594V85.3883Z" fill="black"/>
<path d="M0.223564 81.7864C4.76109 82.0349 7.83302 82.1591 9.43937 82.1591C9.82026 82.1591 10.1183 82.0514 10.3336 81.8361C10.5655 81.6043 10.6814 81.2979 10.6814 80.917V78.6814H4.96809C3.22926 78.6814 1.9624 78.2922 1.1675 77.5139C0.389167 76.719 0 75.4521 0 73.7133V72.9681C0 71.2293 0.389167 69.9707 1.1675 69.1923C1.9624 68.3974 3.22926 68 4.96809 68H13.6871V71.4777H5.96171C4.96809 71.4777 4.47128 71.9745 4.47128 72.9681V73.4649C4.47128 74.4585 4.96809 74.9553 5.96171 74.9553H10.433C12.0559 74.9553 13.2482 75.3362 14.01 76.098C14.7718 76.8598 15.1527 78.0521 15.1527 79.675V80.917C15.1527 82.5399 14.7718 83.7323 14.01 84.4941C13.2482 85.2558 12.0559 85.6367 10.433 85.6367C9.58842 85.6367 8.69416 85.6202 7.75022 85.587L5.4649 85.4877C3.77575 85.4049 2.02864 85.289 0.223564 85.1399V81.7864Z" fill="black"/>
<path d="M52.8515 37.6009C56.8175 35.2852 58.171 30.1467 55.9046 26.1816C53.6068 22.1849 48.5077 20.8209 44.5732 23.1049L25.1524 34.3972C21.1864 36.7128 19.8329 41.8514 22.0993 45.8164C23.1344 47.6168 25.5474 51.3756 26.5474 53.0273C26.5474 53.0273 31.2686 50.1483 33.4307 48.8932L52.8515 37.6009Z" fill="url(#paint0_linear_144_613)"/>
<path d="M52.8515 23.0987C44.4855 18.2223 26.911 7.88184 26.911 7.88184C26.911 7.88184 23.1567 12.9768 22.0993 14.8312C20.7964 17.1162 20.6898 19.8004 21.5881 22.1047C22.2524 23.8088 23.4663 25.3051 25.1524 26.2785L40.1663 35.0545C41.929 36.0085 43.1251 37.8844 43.1251 40.0467C43.1251 41.8909 42.2439 43.5444 40.8904 44.5621L40.7645 44.6893L53.3549 37.3124C54.3621 36.6128 55.2436 35.6906 55.9046 34.546C58.171 30.5712 56.8175 25.3883 52.8515 23.0987Z" fill="#B20710"/>
<path d="M44.772 1.84251L32.4023 9.03663L44.7087 16.199C45.9709 16.9628 47.454 17.4087 49.0317 17.4087C53.6386 17.4087 57.3623 13.6525 57.3623 9.03691C57.3623 4.42132 53.6391 0.632812 49.0319 0.632812C47.4858 0.632812 46.0027 1.0784 44.772 1.84251Z" fill="#B20710"/>
<defs>
<linearGradient id="paint0_linear_144_613" x1="40.9006" y1="27.8919" x2="32.4951" y2="40.5791" gradientUnits="userSpaceOnUse">
<stop stop-color="#540000"/>
<stop offset="1" stop-color="#B20710"/>
</linearGradient>
</defs>
</svg>
