<svg width="80" height="19" viewBox="0 0 80 19" fill="none" xmlns="http://www.w3.org/2000/svg">
<path d="M80.0003 17.8034H65.8848V0H80.0003V3.56068H70.4628V6.9942H77.9657V10.5549H70.4628V14.2427H80.0003V17.8034Z" fill="white"/>
<path d="M63.3351 17.8034C59.4287 17.8034 55.7221 17.8034 52.3988 17.8034C50.7371 17.8034 49.5163 17.4134 48.7363 16.6335C47.9564 15.8535 47.5664 14.887 47.5664 13.2254V5.08669C47.5664 3.30635 47.9649 2.01772 48.7618 1.22081C49.5756 0.406935 50.8728 0 52.6531 0H61.8091V3.56068H53.6704C52.6531 3.56068 52.1444 4.06935 52.1444 5.08669V13.2254C52.1444 13.6154 52.2546 13.9291 52.4751 14.1664C52.7124 14.3869 53.0261 14.4971 53.4161 14.4971C55.366 14.4971 57.1463 14.4547 58.7571 14.3699V10.6821H55.4508V7.63004H63.3351V17.8034Z" fill="white"/>
<path d="M33.6998 17.8034H28.7402L35.4801 0H40.5668L47.3067 17.8034H42.3471L41.2026 14.6242H34.8443L33.6998 17.8034ZM35.9888 11.3179H40.0581L38.0234 5.34102L35.9888 11.3179Z" fill="white"/>
<path d="M25.1808 17.8034H20.6027V3.56068H15.2617V0H30.5218V3.56068H25.1808V17.8034Z" fill="white"/>
<path d="M0.228901 14.1156C4.87474 14.3699 8.02001 14.4971 9.66471 14.4971C10.0547 14.4971 10.3599 14.3869 10.5803 14.1664C10.8177 13.9291 10.9364 13.6154 10.9364 13.2254V10.9364H5.08669C3.30635 10.9364 2.00924 10.5379 1.19537 9.74101C0.398457 8.92714 0 7.63003 0 5.84969V5.08669C0 3.30635 0.398457 2.01772 1.19537 1.22081C2.00924 0.406935 3.30635 0 5.08669 0H14.0138V3.56068H6.10403C5.08669 3.56068 4.57802 4.06935 4.57802 5.08669V5.59536C4.57802 6.6127 5.08669 7.12137 6.10403 7.12137H10.682C12.3437 7.12137 13.5645 7.51134 14.3445 8.2913C15.1244 9.07126 15.5144 10.2921 15.5144 11.9537V13.2254C15.5144 14.887 15.1244 16.1078 14.3445 16.8878C13.5645 17.6678 12.3437 18.0577 10.682 18.0577C9.81731 18.0577 8.90171 18.0408 7.93524 18.0069L5.59536 17.9051C3.86588 17.8204 2.07706 17.7017 0.228901 17.5491V14.1156Z" fill="white"/>
</svg>
