<svg width="64" height="64" viewBox="0 0 64 64" fill="none" xmlns="http://www.w3.org/2000/svg">
<path d="M53 60C57.4183 60 61 56.4183 61 52C61 47.5817 57.4183 44 53 44C48.5817 44 45 47.5817 45 52C45 56.4183 48.5817 60 53 60Z" fill="#FFE812"/>
<path d="M39 32V28V27.143C38.999 25.8292 39.2579 24.5282 39.762 23.315C40.28 22.063 41.098 20.902 42 20L47 15" stroke="white" stroke-width="2" stroke-miterlimit="10"/>
<path d="M31 15L36 20C36.902 20.902 37.72 22.063 38.238 23.315C38.758 24.568 39 25.865 39 27.142V28M54.665 5C49 5 43 8 43 13.75C43 17 45 19 48.25 19C54 19 57 13 57 7.332V5H54.665Z" stroke="white" stroke-width="2" stroke-miterlimit="10"/>
<path d="M55.081 41.998C52.137 36.08 46.06 32 39 32C33.378 32 28.377 34.592 25.082 38.633M23.335 5C29 5 35 8 35 13.75C35 17 33 19 29.75 19C24 19 21 13 21 7.332V5H23.335Z" stroke="white" stroke-width="2" stroke-miterlimit="10"/>
<path d="M28 50C28 49.232 28.293 48.465 28.879 47.879C29.465 47.293 30.232 47 31 47H42C42.768 47 43.535 46.707 44.121 46.121C44.707 45.535 45 44.768 45 44C45 43.232 44.707 42.465 44.121 41.879C43.535 41.293 42.768 41 42 41H31L21 37H13" stroke="white" stroke-width="2" stroke-miterlimit="10"/>
<path d="M13 53H18L36 59H40C59 47 59 47 61.979 45.025C62.572 44.633 63 44 63 43C63 41 61.657 40 60 40C59 40 55 42 47 46H44M0 35H12L13 36V58L12 59H0M9 54V52M9 50V48" stroke="white" stroke-width="2" stroke-miterlimit="10"/>
</svg>
