<svg width="64" height="64" viewBox="0 0 64 64" fill="none" xmlns="http://www.w3.org/2000/svg">
<path d="M18 61C22.9706 61 27 56.9706 27 52C27 47.0294 22.9706 43 18 43C13.0294 43 9 47.0294 9 52C9 56.9706 13.0294 61 18 61Z" fill="#FFE812"/>
<path d="M37 59V60L35 63H31L29 60V59M25 55V59H41V55M22 47H44M22 51H44M22 55H44M29 47V22M37 22V47M33 25V27M33 29V31M33 33V35M25 22H41M54 22C54 10.402 44.598 1 33 1C21.402 1 12 10.402 12 22C12 30.764 17.372 38.267 25 41.414V47H41V41.414C48.628 38.267 54 30.764 54 22Z" stroke="white" stroke-width="2" stroke-miterlimit="10"/>
</svg>
