<svg width="151" height="155" viewBox="0 0 151 155" fill="none" xmlns="http://www.w3.org/2000/svg">
<path d="M78.9868 138.8C78.5268 138.36 77.3268 137.66 75.5868 137.66C72.7468 137.66 72.8268 140.24 72.8468 141.2V141.26C73.5268 140.5 74.5268 139.76 76.0468 139.76C79.4668 139.76 79.8468 142.32 79.8468 143.68V147.9H77.8468V143.68C77.8468 142.5 77.2268 141.74 76.0468 141.56C74.5868 141.34 72.8468 142.64 72.8468 143.8V147.9H70.8468V141.2C70.8668 139.44 71.2868 136.06 75.5868 136.06C77.8068 136.06 79.3268 136.78 80.0668 137.3L78.9868 138.8Z" fill="white"/>
<path d="M65.7709 139.613C63.8525 139.324 62.9094 140.213 62.6501 141.934C62.3908 143.654 63.0298 144.782 64.9481 145.071C66.8863 145.363 67.8293 144.474 68.0887 142.753C68.348 141.033 67.709 139.905 65.7709 139.613ZM70.0663 143.052C69.6937 145.524 67.7057 147.307 64.6799 146.851C61.6936 146.401 60.2998 144.108 60.6724 141.636C61.0451 139.164 63.0529 137.383 66.0391 137.833C69.065 138.289 70.4389 140.579 70.0663 143.052Z" fill="white"/>
<path d="M53.1029 134.716L55.0141 135.306L54.6309 136.548C55.5047 136.022 56.6784 135.61 58.1309 136.058C61.3989 137.066 61.0075 139.624 60.6066 140.924L59.068 145.912L57.1568 145.322L58.6954 140.334C59.0433 139.207 58.6748 138.298 57.6003 137.778C56.27 137.137 54.2241 137.867 53.8822 138.975L52.379 143.849L50.4678 143.259L53.1029 134.716Z" fill="white"/>
<path d="M47.3882 141.904L45.5862 141.037L46.1676 139.829C45.2252 140.219 44.0813 140.29 42.6938 139.622C42.2433 139.405 41.8549 139.151 41.5472 138.914L42.6505 137.914C43.7517 138.577 45.2287 138.645 46.3306 138.154C46.8105 137.941 47.4085 137.253 47.6081 136.838L49.4652 132.982L51.2671 133.85L47.3882 141.904Z" fill="white"/>
<path d="M30.9613 132.001L29.4952 130.641L30.3794 129.688C29.364 129.782 28.2637 129.498 27.1494 128.464C24.6424 126.138 25.9691 124.149 26.8941 123.152L30.4446 119.326L31.9107 120.686L28.3602 124.513C27.5576 125.378 27.6312 126.21 28.3738 127.145C29.2944 128.299 31.0941 128.741 32.1071 127.826L35.576 124.087L37.0421 125.447L30.9613 132.001Z" fill="white"/>
<path d="M22.4032 113.405C23.9473 112.711 26.0482 113.517 27.4572 115.284C29.3527 117.661 28.8301 120.277 26.8443 121.861C24.8741 123.432 22.2067 123.359 20.3113 120.983C18.6653 118.919 18.7377 116.507 20.2517 115.07L21.4245 114.135L26.0258 119.905C27.0363 118.894 27.1505 117.754 26.0656 116.394C25.3548 115.503 24.3875 114.867 23.725 115.063L22.4032 113.405ZM24.7531 120.843L21.4361 116.683C20.5916 117.485 20.7553 118.685 21.703 119.873C22.6756 121.093 23.6872 121.335 24.7531 120.843Z" fill="white"/>
<path d="M24.7431 112.252L18.7755 111.355L16.8355 116.355L15.6655 114.329L17.0463 110.76L13.2755 110.189L12.1055 108.163L17.4055 108.982L19.6131 103.366L20.8831 105.566L19.194 109.52L23.4731 110.052L24.7431 112.252Z" fill="white"/>
<path d="M11.0714 105.834L10.348 103.991L7.59263 105.072L6.85464 103.192L9.61003 102.11L8.92319 100.36L10.4126 99.7758L11.0994 101.526L17.9693 98.8296L18.7073 100.71L11.8374 103.406L12.5608 105.249L11.0714 105.834Z" fill="white"/>
<path d="M11.7566 85.6864C12.2872 85.0049 12.7411 82.7647 12.6783 81.927C12.5737 80.5309 12.5653 79.3483 11.7251 79.1104C10.905 78.871 10.8366 80.0996 10.7377 81.9922C10.6319 84.3267 10.5196 86.8421 8.28783 86.7687C5.55451 86.6927 5.34531 83.0983 5.33093 81.8358C5.31757 80.0519 5.92697 78.2814 8.06201 77.5999L8.19503 79.3749C7.60867 79.5793 7.2252 80.3501 7.13486 81.821C7.07297 82.8685 7.15064 84.7079 8.11693 84.7558C8.94211 84.7943 9.02544 83.7651 9.12427 81.8725C9.23012 79.538 9.56833 76.8252 11.7337 77.0841C14.2427 77.3774 14.3621 80.5774 14.4533 81.794C14.6058 83.8283 13.6977 86.1627 12.8939 86.945L11.7566 85.6864Z" fill="white"/>
<path d="M5.11322 75.0726L5.26119 73.0982L2.30946 72.877L2.46042 70.8626L5.41214 71.0838L5.55263 69.2091L7.14816 69.3286L7.00767 71.2034L14.367 71.7549L14.2161 73.7692L6.85671 73.2177L6.70875 75.1922L5.11322 75.0726Z" fill="white"/>
<path d="M7.91762 57.5592L16.614 59.544L16.1689 61.4939L15.0965 61.2491C15.6666 62.0767 15.9456 63.3713 15.6029 64.8727C14.8419 68.2069 11.6905 68.0825 10.3646 67.7799L10.1696 67.7354C8.84375 67.4328 5.95053 66.1775 6.71155 62.8433C7.05423 61.3419 7.86722 60.2966 8.73998 59.7983L7.47257 59.509L7.91762 57.5592ZM10.6147 65.7856C12.623 66.244 13.4818 65.5373 14.029 64.3083C14.4554 63.3389 14.4707 62.1935 13.5167 61.3399C13.1216 61.0035 12.5695 60.816 11.9066 60.6646L11.8676 60.6557C11.3216 60.5311 10.5105 60.4896 10.0477 60.6301C9.16536 60.9006 8.56071 61.9319 8.34264 62.8873C8.04001 64.2132 8.97681 65.4117 10.6147 65.7856Z" fill="white"/>
<path d="M17.2143 58.3359C17.792 58.0685 18.7031 57.1155 19.3388 55.4958C20.3325 52.9638 19.0885 52.4111 18.2733 52.1341L18.2919 52.1414C18.7323 53.0448 18.8883 54.1802 18.3257 55.6138C17.0762 58.7974 13.9786 58.2047 12.7126 57.7078L12.5264 57.6348C11.2604 57.1379 8.58661 55.4654 9.83608 52.2819C10.3987 50.8483 11.2853 50.122 12.2226 49.7594L11.0125 49.2844L11.7432 47.4227L18.7247 50.1628C18.7992 50.192 22.9215 51.2942 21.0144 56.1534C20.2033 58.2199 18.9778 59.3718 18.2234 59.8707L17.2143 58.3359ZM13.4433 55.8461C14.9885 56.4526 15.9072 56.0826 16.5942 54.9342C17.2334 53.853 17.4192 52.7228 16.7162 51.9957C16.3498 51.6155 15.8577 51.3365 15.2247 51.088C14.6662 50.8688 13.8744 50.7514 13.3917 50.7768C12.4709 50.8237 11.8124 51.7899 11.5675 52.9614C11.2827 54.2891 11.6932 55.1592 13.2571 55.773L13.4433 55.8461Z" fill="white"/>
<path d="M22.5739 41.1503C23.7841 42.334 23.8014 44.5841 22.6714 46.5413C21.1514 49.1741 18.5247 49.6436 16.325 48.3736C14.1426 47.1136 13.2359 44.6041 14.7559 41.9713C16.0759 39.685 18.3469 38.8716 20.2383 39.7557L21.5373 40.5057L17.8473 46.8969C19.1571 47.4684 20.2599 47.1582 21.1299 45.6513C21.6999 44.6641 21.9381 43.5314 21.5139 42.9863L22.5739 41.1503ZM16.509 46.055L19.169 41.4477C18.1144 40.9543 17.0575 41.545 16.2975 42.8613C15.5175 44.2123 15.6617 45.2425 16.509 46.055Z" fill="white"/>
<path d="M27.2976 26.9414L28.7783 25.5674L34.4918 31.7251L33.011 33.099L27.2976 26.9414ZM25.3029 25.4091C24.8539 24.9253 24.7788 24.2856 25.5265 23.5918C26.3036 22.8709 26.9358 22.9936 27.3847 23.4774C27.82 23.9466 27.8952 24.5862 27.1181 25.3072C26.3704 26.001 25.7382 25.8782 25.3029 25.4091Z" fill="white"/>
<path d="M36.4442 26.3598C37.2997 26.4785 39.4667 25.7515 40.1607 25.2783C41.3174 24.4896 42.3375 23.891 42.1234 23.0445C41.9206 22.2145 40.8225 22.7696 39.134 23.6303C37.0594 24.7059 34.8248 25.8663 33.7725 23.8968C32.4716 21.4917 35.4799 19.5134 36.566 18.8697C38.1043 17.9661 39.9423 17.6086 41.6 19.1169L40.1293 20.1196C39.6591 19.714 38.7998 19.7673 37.4808 20.4245C36.5427 20.8947 34.9886 21.8816 35.4302 22.7424C35.8095 23.4763 36.7424 23.0339 38.4309 22.1731C40.5055 21.0976 43.0241 20.034 43.8825 22.0388C44.883 24.3583 42.1714 26.0617 41.1634 26.749C39.4779 27.8982 37.0022 28.2789 35.9228 27.9739L36.4442 26.3598Z" fill="white"/>
<path d="M52.1668 20.6917L52.3371 13.9834L46.3865 12.1981L52.4257 10.3352L52.5751 3.15209L56.7831 8.99116L62.7841 7.1401L58.8732 11.9673L62.831 17.4022L56.2831 15.1732L52.1668 20.6917Z" fill="white"/>
<path d="M71.9273 16.2C72.3873 16.64 73.5873 17.34 75.3273 17.34C78.1673 17.34 78.0873 14.76 78.0673 13.8V13.74C77.3873 14.5 76.3873 15.24 74.8673 15.24C71.4473 15.24 71.0673 12.68 71.0673 11.32V7.1H73.0673V11.32C73.0673 12.5 73.6873 13.26 74.8673 13.44C76.3273 13.66 78.0673 12.36 78.0673 11.2V7.1H80.0673V13.8C80.0473 15.56 79.6273 18.94 75.3273 18.94C73.1073 18.94 71.5873 18.22 70.8473 17.7L71.9273 16.2Z" fill="white"/>
<path d="M85.1862 15.1921C87.1045 15.4812 88.0476 14.5919 88.3069 12.8713C88.5663 11.1507 87.9272 10.0229 86.0089 9.73375C84.0708 9.44162 83.1277 10.331 82.8684 12.0516C82.609 13.7721 83.2481 14.9 85.1862 15.1921ZM80.8907 11.7535C81.2633 9.2814 83.2513 7.49778 86.2772 7.95385C89.2634 8.40396 90.6572 10.6973 90.2846 13.1694C89.912 15.6415 87.9042 17.4221 84.9179 16.972C81.8921 16.5159 80.5181 14.2256 80.8907 11.7535Z" fill="white"/>
<path d="M97.8541 20.0888L95.943 19.4993L96.3261 18.257C95.4523 18.7828 94.2786 19.1952 92.8262 18.7472C89.5581 17.7391 89.9496 15.1808 90.3504 13.8813L91.8891 8.89317L93.8002 9.48268L92.2616 14.4708C91.9138 15.5983 92.2822 16.5073 93.3567 17.0271C94.687 17.6677 96.7329 16.9383 97.0748 15.8299L98.5781 10.9565L100.489 11.546L97.8541 20.0888Z" fill="white"/>
<path d="M103.569 12.9006L105.371 13.7684L104.789 14.9757C105.732 14.586 106.876 14.5153 108.263 15.1835C108.714 15.4005 109.102 15.6541 109.41 15.8911L108.306 16.8914C107.205 16.2279 105.728 16.1604 104.626 16.6509C104.147 16.8637 103.548 17.5525 103.349 17.9669L101.492 21.8231L99.6899 20.9553L103.569 12.9006Z" fill="white"/>
<path d="M119.996 22.8041L121.462 24.1644L120.578 25.1174C121.593 25.0228 122.693 25.3071 123.808 26.341C126.315 28.6672 124.988 30.6557 124.063 31.6526L120.512 35.4791L119.046 34.1188L122.597 30.2923C123.399 29.4273 123.326 28.595 122.583 27.6605C121.663 26.5062 119.863 26.064 118.85 26.9794L115.381 30.7179L113.915 29.3576L119.996 22.8041Z" fill="white"/>
<path d="M128.552 41.3998C127.008 42.094 124.907 41.288 123.498 39.521C121.602 37.1443 122.125 34.5276 124.111 32.9439C126.081 31.3727 128.748 31.4456 130.644 33.8223C132.29 35.8864 132.217 38.2976 130.703 39.7352L129.531 40.6704L124.929 34.9005C123.919 35.9109 123.805 37.0508 124.889 38.4112C125.6 39.3025 126.568 39.9381 127.23 39.7423L128.552 41.3998ZM126.202 33.9623L129.519 38.1216C130.364 37.3202 130.2 36.1205 129.252 34.9322C128.279 33.7125 127.268 33.4704 126.202 33.9623Z" fill="white"/>
<path d="M126.214 42.5535L132.182 43.4498L134.122 38.4499L135.292 40.4764L133.911 44.0449L137.682 44.616L138.852 46.6425L133.552 45.8227L131.344 51.4389L130.074 49.2392L131.763 45.2849L127.484 44.7532L126.214 42.5535Z" fill="white"/>
<path d="M139.886 48.9713L140.609 50.8144L143.364 49.733L144.102 51.6134L141.347 52.6948L142.034 54.4448L140.544 55.0294L139.858 53.2793L132.988 55.9755L132.25 54.0952L139.12 51.399L138.396 49.5558L139.886 48.9713Z" fill="white"/>
<path d="M139.2 69.1188C138.67 69.8003 138.216 72.0405 138.279 72.8781C138.383 74.2742 138.392 75.4569 139.232 75.6948C140.052 75.9342 140.12 74.7056 140.219 72.8129C140.325 70.4785 140.437 67.9631 142.669 68.0365C145.403 68.1125 145.612 71.7069 145.626 72.9693C145.639 74.7533 145.03 76.5238 142.895 77.2053L142.762 75.4302C143.348 75.2259 143.732 74.455 143.822 72.9842C143.884 71.9366 143.806 70.0973 142.84 70.0494C142.015 70.0109 141.932 71.04 141.833 72.9327C141.727 75.2671 141.389 77.98 139.223 77.7211C136.714 77.4278 136.595 74.2278 136.504 73.0112C136.351 70.9769 137.259 68.6425 138.063 67.8602L139.2 69.1188Z" fill="white"/>
<path d="M145.844 79.7323L145.696 81.7068L148.648 81.928L148.497 83.9423L145.545 83.7211L145.404 85.5959L143.809 85.4763L143.949 83.6016L136.59 83.0501L136.741 81.0357L144.1 81.5872L144.248 79.6127L145.844 79.7323Z" fill="white"/>
<path d="M143.039 97.246L134.343 95.2611L134.788 93.3113L135.861 93.5561C135.29 92.7284 135.011 91.4339 135.354 89.9325C136.115 86.5983 139.266 86.7226 140.592 87.0253L140.787 87.0698C142.113 87.3724 145.007 88.6277 144.245 91.9619C143.903 93.4633 143.09 94.5086 142.217 95.0069L143.484 95.2962L143.039 97.246ZM140.342 89.0196C138.334 88.5612 137.475 89.2678 136.928 90.4969C136.502 91.4663 136.486 92.6116 137.44 93.4653C137.835 93.8017 138.387 93.9892 139.05 94.1405L139.089 94.1494C139.635 94.274 140.446 94.3156 140.909 94.175C141.792 93.9046 142.396 92.8733 142.614 91.9179C142.917 90.592 141.98 89.3935 140.342 89.0196Z" fill="white"/>
<path d="M133.743 96.4693C133.165 96.7367 132.254 97.6897 131.618 99.3094C130.625 101.841 131.869 102.394 132.684 102.671L132.665 102.664C132.225 101.76 132.069 100.625 132.631 99.1914C133.881 96.0078 136.978 96.6005 138.244 97.0973L138.431 97.1704C139.697 97.6673 142.37 99.3397 141.121 102.523C140.558 103.957 139.672 104.683 138.734 105.046L139.945 105.521L139.214 107.382L132.232 104.642C132.158 104.613 128.036 103.511 129.943 98.6518C130.754 96.5853 131.979 95.4334 132.734 94.9345L133.743 96.4693ZM137.514 98.9591C135.969 98.3526 135.05 98.7226 134.363 99.8709C133.724 100.952 133.538 102.082 134.241 102.81C134.607 103.19 135.099 103.469 135.732 103.717C136.291 103.936 137.083 104.054 137.565 104.028C138.486 103.981 139.145 103.015 139.39 101.844C139.674 100.516 139.264 99.6459 137.7 99.0322L137.514 98.9591Z" fill="white"/>
<path d="M128.383 113.655C127.173 112.471 127.156 110.221 128.286 108.264C129.806 105.631 132.432 105.162 134.632 106.432C136.814 107.692 137.721 110.201 136.201 112.834C134.881 115.12 132.61 115.934 130.719 115.05L129.42 114.3L133.11 107.908C131.8 107.337 130.697 107.647 129.827 109.154C129.257 110.141 129.019 111.274 129.443 111.819L128.383 113.655ZM134.448 108.75L131.788 113.357C132.843 113.851 133.9 113.26 134.66 111.944C135.44 110.593 135.295 109.563 134.448 108.75Z" fill="white"/>
<path d="M123.659 127.864L122.179 129.238L116.465 123.08L117.946 121.706L123.659 127.864ZM125.654 129.396C126.103 129.88 126.178 130.52 125.431 131.213C124.653 131.934 124.021 131.812 123.572 131.328C123.137 130.859 123.062 130.219 123.839 129.498C124.587 128.804 125.219 128.927 125.654 129.396Z" fill="white"/>
<path d="M114.513 128.445C113.657 128.327 111.49 129.054 110.796 129.527C109.64 130.316 108.62 130.914 108.834 131.761C109.036 132.591 110.135 132.036 111.823 131.175C113.898 130.099 116.132 128.939 117.185 130.908C118.485 133.313 115.477 135.292 114.391 135.935C112.853 136.839 111.015 137.197 109.357 135.688L110.828 134.686C111.298 135.091 112.157 135.038 113.476 134.381C114.414 133.91 115.968 132.924 115.527 132.063C115.148 131.329 114.215 131.771 112.526 132.632C110.451 133.708 107.933 134.771 107.074 132.766C106.074 130.447 108.786 128.743 109.794 128.056C111.479 126.907 113.955 126.526 115.034 126.831L114.513 128.445Z" fill="white"/>
<path d="M98.7902 134.114L98.6199 140.822L104.571 142.607L98.5313 144.47L98.382 151.653L94.1739 145.814L88.1729 147.665L92.0838 142.838L88.126 137.403L94.6739 139.632L98.7902 134.114Z" fill="white"/>
</svg>
